<svg width="111" height="97" viewBox="0 0 111 97" fill="none" xmlns="http://www.w3.org/2000/svg">
<path d="M42.0493 31.086L41.4773 32.032V32.4867C40.4153 35.1801 39.8608 38.0468 39.842 40.942V75.1887C39.8515 78.931 40.7969 82.6116 42.592 85.8953C42.8413 86.3353 43.1029 86.768 43.3767 87.1933C45.7054 90.823 49.1178 93.6274 53.13 95.2087L54.4133 95.7147C57.2134 96.6718 60.1888 97.0056 63.1313 96.6927C66.0738 96.3798 68.9125 95.4278 71.4487 93.9033L99.616 77.0367C100.505 76.5057 101.355 75.9127 102.161 75.262C104.562 73.329 106.497 70.8802 107.822 68.0973L108.299 67.1V66.9753C109.432 64.2385 110.02 61.3064 110.029 58.344V24.0753C110.009 20.3377 109.067 16.6627 107.287 13.376C104.978 9.10815 101.247 5.78424 96.7413 3.982L95.4727 3.48333C93.3693 2.79358 91.1739 2.42521 88.9607 2.39067C88.7325 2.38407 88.5041 2.3988 88.2787 2.43467C84.8091 2.56913 81.4253 3.55105 78.4227 5.29467L71.4707 9.45267L50.27 22.1393C46.7015 24.2382 43.8394 27.353 42.0493 31.086ZM80.916 9.43067C83.3648 8.00119 86.1472 7.24238 88.9827 7.23067C90.6867 7.24792 92.3772 7.53503 93.9913 8.08133C94.0412 8.14029 94.1124 8.17718 94.1893 8.184C97.9799 9.50117 101.144 12.1837 103.063 15.708C104.463 18.2753 105.201 21.151 105.211 24.0753V58.3293C105.213 60.8927 104.655 63.4255 103.576 65.7507C103.535 65.7915 103.505 65.8413 103.487 65.8961C103.469 65.9509 103.464 66.0091 103.473 66.066C102.09 68.9359 99.8878 71.3319 97.1447 72.952L68.97 89.8187C67.024 90.9874 64.8456 91.7159 62.588 91.9528C60.3304 92.1897 58.0483 91.9293 55.902 91.19C55.8521 91.131 55.7809 91.0942 55.704 91.0873C51.9062 89.7828 48.7385 87.0967 46.8307 83.5633C45.4281 80.9917 44.6895 78.1106 44.682 75.1813V40.942C44.6713 38.3699 45.2245 35.8266 46.3027 33.4913C46.3027 33.3813 46.4053 33.3813 46.4053 33.176C47.7887 30.3061 49.9908 27.9101 52.734 26.29L80.916 9.43067ZM38.2213 84.3333C36.4233 81.0507 35.4777 77.3694 35.4713 73.6267V39.358C35.4774 36.4734 36.0324 33.6164 37.1067 30.9393V30.5067L37.6787 29.5607C39.4697 25.8349 42.3254 22.724 45.8847 20.6213L67.078 7.942C65.1071 5.16116 62.4 2.98481 59.2607 1.65733C58.7429 1.43927 58.2169 1.24113 57.684 1.06333C57.6397 1.06221 57.5962 1.05108 57.5569 1.03076C57.5175 1.01043 57.4832 0.981457 57.4567 0.946H57.3247C55.4821 0.342403 53.5581 0.0234012 51.6193 0C48.3268 0.0140485 45.0918 0.864429 42.218 2.47133L9.40133 21.186C6.24104 22.9513 3.67407 25.6127 2.024 28.8347V28.952C2.024 29.062 1.914 29.062 1.914 29.1793C0.666659 31.7488 0.0125542 34.5658 0 37.422V75.4747C0.0196611 78.7458 0.897082 81.9546 2.54466 84.7807C4.83646 88.7552 8.52473 91.735 12.892 93.1407C12.9794 93.1512 13.0601 93.1929 13.1193 93.258H13.2367C15.0745 93.8699 16.9977 94.1868 18.9347 94.1967C22.227 94.1881 25.4627 93.34 28.336 91.7327L39.0427 85.6313C38.7464 85.2133 38.4722 84.7801 38.2213 84.3333Z" fill="black"/>
</svg>
